<svg viewBox="0 0 952 658" xmlns="http://www.w3.org/2000/svg">
  <style type="text/css">
	.st0{fill:#C12024;}
	.st1{fill:#F9E001;}
	.st2{fill:#C12125;}
	.st3{fill:#282B78;}
	.st4{fill:#FFFFFF;}
	.st5{fill:none;}
</style>
  <switch transform="translate(-23.91,-170.91)">
    <g>
      <g>
        <g>
          <polygon class="st0" points="284.88,406.54 284.88,391.27 443.8,351.45 443.8,366.72 " />
          <polygon class="st0" points="284.79,406.56 284.79,391.29 284.88,391.27 284.88,406.54 " />
          <g>
            <path class="st1" d="m 410.98,298.59 c 0,17.48 5.92,12.98 5.92,34.41 0,9.82 -0.64,16.09 -1.34,20.01 l -24.27,6.08 c -0.03,-19.58 -4.08,-22.15 -13.25,-28.07 -9.51,-6.14 -11.43,-18.91 -11.43,-18.91 0,0 -3.42,9.29 -3.42,14.34 0,12.31 15.99,28.89 21.53,34.28 l -27.09,6.78 c 0.45,-8.8 0.83,-22.35 -10.19,-33 -11.99,-11.62 -10.19,-30.18 -10.19,-30.18 -14.2,16.52 -11.44,43.56 -2.35,51.08 6.83,5.64 13.36,11.27 16.19,13.75 l -37.42,9.37 c -1.65,-4.56 -6.91,-16.52 -21.63,-36.1 0,0 11.96,3.26 19.81,13.75 -0.89,-1.59 -20.8,-37.57 -4.23,-76.43 20.8,-43.83 77.3,-71.41 94.12,-108.84 0,0 4.4,13.67 -5.52,29.91 -9.92,16.26 -31,41.11 -31,69.38 0,28.27 17.92,23.89 32.94,43.69 0,0 -0.96,-30.99 18.73,-44.92 0.01,-0.01 -5.91,12.13 -5.91,29.62 z" />
            <path class="st1" d="m 406.12,199.35 c 0,0 7.54,18.43 -3,37.07 -10.54,18.64 -17.16,29.19 -22.01,41.48 0,0 -5.17,-14.95 3.62,-33.08 8.78,-18.13 18.91,-35.54 21.39,-45.47 z" />
          </g>
          <path class="st2" d="m 881.51,503.44 26.26,-6.49 5.77,-1.42 10.5,-2.59 1.8,-10.57 0.99,-5.8 5.54,-32.13 2.35,-13.62 4.26,-24.72 -24.57,6.08 -13.51,3.34 -63.41,15.68 2.68,-15.42 5.9,-34.21 13.24,-76.7 2.37,-13.67 4.3,-24.85 -24.68,6.21 -13.56,3.41 -64.27,16.12 -5.75,1.44 -10.42,2.62 -0.94,5.45 c -1.47,-0.25 -2.97,-0.38 -4.5,-0.38 h -0.71 l -0.42,0.02 -0.33,0.02 -0.14,0.01 h -0.11 c -12.17,0.79 -74.81,5.77 -114.38,26.52 -11.21,5.88 -21.26,12.08 -30.1,18.54 l 2.21,-12.79 -24.67,6.21 -13.56,3.41 -63.83,16.01 -5.75,1.44 -10.41,2.62 -1.82,10.5 -1,5.77 -10.23,59.26 -35.87,8.88 6.39,-36.96 2.37,-13.68 4.3,-24.82 -24.66,6.17 -13.56,3.38 -57.74,14.49 -5.69,1.42 -46.69,11.69 -3.74,0.93 -6.84,1.71 -3.49,6.1 -1.92,3.34 -47.93,83.62 -6.87,11.97 -15.28,-59.9 -2.25,-8.75 -4.05,-15.88 -16.04,4.03 -8.81,2.21 -71.96,18.04 -9.28,2.33 -16.83,4.22 5.09,16.46 2.8,9.05 20.46,66.12 9.43,30.43 14.79,47.83 8.85,28.58 2.53,8.18 4.6,14.85 15.21,-3.76 8.37,-2.06 45.78,-11.33 3.58,-0.88 6.4,-1.61 3.52,-5.52 1.93,-3.03 23.4,-36.56 39.18,-61.2 3.77,-5.9 -4.86,28.16 -5.55,32.15 -2.35,13.63 -3.8,22.04 c -62.81,26.2 -139.75,64.25 -162.12,84.6 -23.25,21.13 -96.12,94.43 -97.27,95.57 104.72,-62.26 305.91,-136 470.15,-174.23 164.25,-38.25 369.37,-47.18 369.37,-47.18 25.41,-22.55 112.64,-110.42 112.64,-110.42 -16.21,0.61 -61.32,3.77 -94.56,6.17 z m -441.34,88.78 -36.71,10.42 11.71,-68.24 37.7,-9.05 z" />
          <g>
            <path class="st3" d="m 742.56,327.23 c -0.01,-0.19 -0.09,-0.34 -0.21,-0.45 -0.03,-0.03 -0.07,-0.06 -0.1,-0.08 -0.11,-0.07 -0.24,-0.11 -0.38,-0.11 h -0.05 c -7.17,0.45 -68.27,4.86 -104.03,23.62 -38.04,19.93 -64.77,45.05 -64.77,77.42 0,32.37 32.1,32.23 59.39,35.09 27.29,2.87 39.48,3.69 39.48,16.05 0,12.36 -4.21,20.08 -17.99,27.38 -13.78,7.31 -31.17,10.89 -49.57,10.89 -25.87,0 -23.53,-5.05 -31.32,-5.05 -7.78,0 -19.84,4.33 -21.6,18.98 -1.32,11.06 -1.88,19.43 -2.08,22.87 -0.05,0.91 0.67,1.65 1.57,1.65 h 0.07 c 11.22,-0.47 74.72,-4.26 120.42,-29.94 50.3,-28.27 61.6,-57.76 61.6,-78.52 0,-20.76 -13.65,-29.5 -43.68,-33.46 -30.04,-3.96 -57.33,-5.59 -57.33,-16.65 0,-11.07 17.4,-34.21 65.77,-34.21 13.02,0 21.66,3.21 26.18,3.21 4.51,0 16.22,-4.98 17.94,-14.2 1.53,-8.09 0.88,-21.34 0.69,-24.49 z m 63.05,138.04 9.3,-53.79 5.9,-34.21 13.24,-76.7 -64.29,16.12 -13.21,76.48 -5.9,34.21 -9.3,53.81 -5.55,32.14 64.26,-15.9 101.51,-25.12 5.54,-32.15 z m -303.49,-81.52 -13.04,75.61 -90.2,22.32 12.99,-75.31 -57.74,14.47 -5.67,1.42 -46.71,11.7 -47.93,83.62 -21.86,38.19 -16.51,28.78 -5.92,-23.24 -7.85,-30.81 -17.13,-67.16 -71.97,18.04 20.46,66.12 9.42,30.41 14.8,47.85 8.85,28.58 45.76,-11.34 23.41,-36.57 39.19,-61.2 24.92,-38.92 47.3,-73.86 -11.22,64.92 -5.9,34.22 -9.29,53.79 -5.55,32.15 63.39,-15.69 5.55,-32.15 9.3,-53.79 90.18,-22.33 -9.29,53.81 -5.55,32.15 63.81,-15.79 5.55,-32.15 9.29,-53.8 5.9,-34.22 h 0.02 l 13.08,-75.82 z" />
            <path class="st4" d="m 904.9,431.41 -87.97,21.77 6.94,-40.19 5.9,-34.21 13.25,-76.7 2.36,-13.66 -13.56,3.4 -64.29,16.12 -5.73,1.44 -1,5.78 -13.22,76.48 -5.9,34.21 -1.39,8.11 c -6.34,-20.59 -28.25,-26.49 -49.76,-29.32 -4.06,-0.54 -8.07,-1.04 -11.98,-1.51 -9.93,-1.22 -19.3,-2.38 -26.54,-3.89 -6.74,-1.41 -9.62,-2.73 -10.77,-3.44 1.54,-6.67 15.94,-24.08 56.53,-24.08 7.3,0 13.05,1.12 17.67,2.04 3.33,0.65 5.94,1.16 8.51,1.16 8.2,0 24.2,-7.21 26.89,-21.58 1.67,-8.96 1.04,-22.66 0.8,-26.64 -0.3,-5.12 -4.59,-9.14 -9.77,-9.14 h -0.3 l -0.35,0.02 c -7.07,0.45 -70.21,5 -107.68,24.64 -21.24,11.14 -37.8,23.26 -49.21,36.05 -6.53,7.32 -11.51,14.98 -14.91,22.91 l 5.51,-31.93 2.36,-13.65 -13.55,3.4 -63.85,16.01 -5.73,1.44 -1,5.78 -12.05,69.81 -70.93,17.55 10.65,-61.71 2.36,-13.65 -13.55,3.39 -57.75,14.47 -5.67,1.43 -46.71,11.69 -3.76,0.95 -1.91,3.34 -47.94,83.62 -21.86,38.19 -5.32,9.26 -0.38,-1.48 -7.85,-30.81 -17.13,-67.17 -2.23,-8.74 -8.82,2.21 -71.97,18.04 -9.27,2.32 2.8,9.06 20.46,66.13 9.43,30.41 14.8,47.85 8.84,28.58 2.53,8.17 8.37,-2.07 45.78,-11.32 3.53,-0.88 1.95,-3.04 23.41,-36.58 39.18,-61.2 24.92,-38.92 23.01,-35.92 -3.56,20.64 -5.9,34.22 -9.3,53.79 -5.55,32.15 -2.35,13.6 13.52,-3.34 63.4,-15.68 5.75,-1.43 1.01,-5.8 5.55,-32.15 8.29,-47.99 70.91,-17.56 -6.95,40.2 -5.55,32.15 -2.35,13.61 13.52,-3.35 63.81,-15.79 5.75,-1.43 1.01,-5.79 0.95,-5.49 c 0.34,0.5 0.72,0.98 1.13,1.42 2.01,2.1 4.83,3.3 7.75,3.3 h 0.18 l 0.26,-0.01 c 12.51,-0.53 77.24,-4.53 124.55,-31.11 29.56,-16.61 46.5,-33.93 55.83,-49.88 l -4.89,28.29 -2.35,13.61 13.52,-3.34 64.25,-15.89 101.52,-25.13 5.75,-1.42 1.01,-5.8 5.53,-32.15 2.35,-13.6 z m -367.23,100.18 -5.55,32.15 -63.81,15.79 5.55,-32.15 9.29,-53.81 -90.18,22.33 -9.3,53.79 -5.55,32.15 -63.39,15.69 5.55,-32.15 9.29,-53.79 5.9,-34.22 11.22,-64.92 -47.3,73.86 -24.92,38.92 -39.19,61.2 -23.41,36.57 -45.78,11.33 -8.85,-28.58 -14.8,-47.85 -9.42,-30.41 -20.46,-66.12 71.97,-18.04 17.13,67.16 7.85,30.81 5.92,23.24 16.51,-28.78 21.86,-38.19 47.93,-83.62 46.71,-11.7 5.67,-1.42 57.74,-14.47 -12.99,75.31 90.2,-22.32 13.04,-75.61 63.85,-16.01 -13.08,75.82 h -0.02 l -5.9,34.22 z m 47.97,-68.45 c 11.28,5.29 25.16,6.59 38.58,7.84 2.43,0.23 4.86,0.45 7.25,0.71 l 2.85,0.3 c 11.58,1.21 20.73,2.17 25.7,3.93 2.79,0.99 2.79,1.27 2.79,2.86 0,8.6 -1.9,13.46 -13.18,19.43 -12.12,6.42 -27.77,9.82 -45.28,9.82 -14.83,0 -18.73,-1.65 -21.56,-2.86 -2.28,-0.98 -5.13,-2.19 -9.76,-2.19 -7.98,0 -16.7,3.09 -22.85,9.63 l 5.75,-33.29 4.64,-26.94 1.27,-7.3 2.26,-13.08 c 1.19,14.52 8.42,24.98 21.54,31.14 z m 85.77,62.4 c -45.7,25.68 -109.21,29.47 -120.42,29.94 h -0.07 c -0.91,0 -1.62,-0.74 -1.57,-1.65 0.2,-3.43 0.76,-11.81 2.08,-22.87 1.76,-14.65 13.82,-18.98 21.6,-18.98 7.78,0 5.45,5.05 31.32,5.05 18.4,0 35.79,-3.58 49.57,-10.89 13.78,-7.3 17.99,-15.01 17.99,-27.38 0,-12.36 -12.19,-13.18 -39.48,-16.05 -27.29,-2.86 -59.39,-2.72 -59.39,-35.09 0,-32.37 26.73,-57.49 64.77,-77.42 35.76,-18.75 96.86,-23.16 104.03,-23.62 h 0.05 c 0.14,0 0.27,0.04 0.38,0.11 0.04,0.02 0.07,0.05 0.1,0.08 0.12,0.12 0.2,0.27 0.21,0.45 0.19,3.15 0.85,16.4 -0.67,24.48 -1.72,9.21 -13.43,14.2 -17.94,14.2 -4.52,0 -13.16,-3.21 -26.18,-3.21 -48.37,0 -65.77,23.14 -65.77,34.21 0,11.06 27.29,12.7 57.33,16.65 30.03,3.97 43.68,12.71 43.68,33.46 -0.02,20.77 -11.32,50.26 -61.62,78.53 z m 230.16,-53.24 -101.51,25.12 -64.26,15.9 5.55,-32.14 9.3,-53.81 5.9,-34.21 13.21,-76.48 64.29,-16.12 -13.24,76.7 -5.9,34.21 -9.3,53.79 101.5,-25.12 z" />
          </g>
          <line class="st5" x1="443.79999" y1="351.45001" x2="443.79999" y2="350.98001" />
          <line class="st5" x1="284.88" y1="391.26999" x2="284.88" y2="390.29999" />
        </g>
        <g>
          <path class="st4" d="m 235.72,708.94 c 2.28,0.46 5.36,0.36 8.45,-0.75 2.79,-1.01 5.03,-3.2 4.41,-5.75 -0.47,-1.91 -2.2,-2.57 -5.69,-3.07 -4,-0.59 -8.02,-1.96 -9.05,-6.23 -1.63,-6.71 3.28,-12.83 10.6,-15.45 4.08,-1.46 6.69,-1.44 8.31,-1.23 l -0.81,6.66 c -1.24,-0.19 -3.84,-0.21 -6.57,0.82 -3.39,1.22 -4.74,3.46 -4.3,5.27 0.46,1.91 2.81,2.4 6.03,2.94 4.59,0.59 7.84,2.35 8.8,6.31 1.8,7.35 -3.47,13.36 -10.95,16.06 -4.71,1.65 -8.34,1.67 -10.22,1.12 z" />
          <path class="st4" d="m 279.99,686.48 -11.92,4.08 0.28,8.55 13.43,-4.61 0.24,6.45 -20.69,7.11 -1.13,-35.35 19.88,-6.79 0.19,6.44 -12.66,4.33 0.21,7.55 12.02,-4.11 z" />
          <path class="st4" d="m 286.19,664.56 c 2.13,-1.28 5.46,-2.68 8.8,-3.77 3.19,-1.04 6.57,-1.68 9.23,-0.97 2.47,0.56 4.47,2.17 5.13,5.21 1.06,4.92 -1.55,9.1 -5.59,11.9 l 0.03,0.15 c 2.19,0.23 3.55,2.11 4.5,5.01 1.26,3.6 2.45,7.86 3.34,9.04 l -7.39,2.43 c -0.49,-0.79 -1.46,-3.54 -2.64,-7.54 -1.22,-3.93 -2.88,-4.7 -5.73,-3.77 l -2.2,0.72 0.32,13.96 -7.1,2.34 z m 7.44,12.75 2.94,-0.97 c 3.89,-1.28 6.23,-4.52 5.53,-7.77 -0.58,-2.71 -3.08,-3.15 -5.97,-2.2 -1.35,0.44 -2.17,0.82 -2.74,1.16 z" />
          <path class="st4" d="m 322.63,687.63 -10.95,-31.98 7.43,-2.33 4.72,15.36 c 1.07,3.45 1.98,6.58 2.88,9.97 l 0.1,-0.03 c 0.58,-3.66 1.45,-7.71 2.39,-11.69 l 4.3,-18.13 8.01,-2.51 -10.54,38.71 z" />
          <path class="st4" d="m 352.56,643.04 0.16,35.23 -7.18,2.2 -0.13,-35.25 z" />
          <path class="st4" d="m 359.09,676.28 0.13,-35.26 8.41,-2.48 6.82,11.39 c 2.15,3.85 3.69,7.05 5.18,10.48 l 0.15,-0.04 c -0.5,-3.46 -0.69,-7.27 -0.72,-12.42 v -12.77 l 6.7,-1.97 -0.05,35.18 -7.42,2.2 -7.19,-11.94 c -2.34,-4.06 -3.81,-6.86 -5.47,-10.65 l -0.15,0.04 c 0.26,3.37 0.36,8.35 0.35,13.89 l -0.05,12.37 z" />
          <path class="st4" d="m 419.44,657.13 c -2.38,1.56 -6.28,3.76 -10.51,4.96 -4.58,1.3 -8.63,1.19 -11.81,-0.51 -3.1,-1.57 -5.31,-4.86 -6.06,-9.12 -1.11,-6.25 0.48,-12.36 4.12,-17.18 3.23,-4.18 8.13,-7.38 13.94,-9.01 4.32,-1.22 7.69,-1.29 9.1,-1.01 l -1.06,6.58 c -1.61,-0.27 -4.36,-0.17 -7.34,0.67 -3.33,0.94 -6.09,2.7 -8.02,5.06 -2.53,3.1 -3.76,7.61 -2.96,12.17 1,5.6 4.83,7.49 10.11,5.99 1.69,-0.48 2.79,-1.05 3.57,-1.64 l 0.09,-7.41 -5.22,1.48 0.13,-6.02 12.17,-3.44 z" />
          <path class="st4" d="m 440.84,652.85 0.3,-14.35 -9.85,-18 7.64,-2.05 3.55,7.89 c 1.11,2.6 1.72,4.09 2.3,5.69 l 0.1,-0.03 c 0.69,-2.05 1.42,-4.21 2.4,-7.01 l 3.59,-9.74 8.51,-2.28 -11.12,23.45 -0.26,14.5 z" />
          <path class="st4" d="m 490.24,618.98 c 0.98,6.09 -0.19,12.59 -3.41,17.29 -2.64,3.84 -6.57,6.72 -11.57,8.02 -8.69,2.25 -14.53,-2.65 -15.76,-10.45 -0.96,-6.05 0.33,-12.63 3.65,-17.4 2.65,-3.77 6.62,-6.65 11.42,-7.88 8.79,-2.28 14.39,2.46 15.67,10.42 z m -20.91,-0.28 c -2.26,3.32 -2.92,8.9 -2.28,12.92 0.75,4.71 3.44,7.69 8.3,6.43 2.13,-0.55 3.92,-1.95 5.21,-3.88 2.2,-3.31 2.76,-9.18 2.14,-13.04 -0.67,-4.16 -2.79,-7.78 -8.04,-6.43 -2.22,0.57 -4.05,2.02 -5.33,4 z" />
          <path class="st4" d="m 503.18,601.91 -0.71,20.11 c -0.08,1.2 -0.02,2.58 0.19,4.02 0.41,2.73 2.41,4.4 5.58,3.61 3.76,-0.93 5.81,-4.01 6.05,-10.51 l 0.73,-20.15 7.1,-1.75 -0.72,19.83 c -0.39,10.59 -4.05,16.55 -13.16,18.81 -6.88,1.76 -11.64,-0.83 -12.7,-7.93 -0.22,-1.44 -0.26,-3.13 -0.21,-4.79 l 0.72,-19.5 z" />
          <path class="st4" d="m 534.37,600.81 -8.79,2.08 0.34,-6.53 24.7,-5.85 -0.28,6.51 -8.87,2.1 -1.21,28.4 -7.12,1.7 z" />
          <path class="st4" d="m 561.8,587.99 -0.68,13.59 12.02,-2.74 0.67,-13.57 7.13,-1.62 -1.68,34.83 -7.1,1.63 0.68,-14.65 -12.08,2.76 -0.7,14.66 -7.12,1.63 1.76,-34.89 z" />
          <path class="st4" d="m 594.91,607 c 2.12,0.77 5.05,1.1 8.11,0.44 2.76,-0.6 5.1,-2.43 4.77,-5.01 -0.25,-1.94 -1.83,-2.82 -5.09,-3.79 -3.74,-1.13 -7.42,-3.04 -7.97,-7.35 -0.87,-6.79 4.41,-12.09 11.63,-13.65 4.02,-0.87 6.5,-0.48 8.01,-0.05 l -1.44,6.41 c -1.16,-0.36 -3.63,-0.74 -6.32,-0.11 -3.34,0.72 -4.85,2.73 -4.62,4.56 0.25,1.93 2.42,2.74 5.43,3.72 4.3,1.21 7.21,3.38 7.73,7.4 0.96,7.45 -4.64,12.6 -12.03,14.2 -4.64,0.95 -8.09,0.48 -9.82,-0.32 z" />
          <path class="st4" d="m 628.44,573.48 -2.11,34.73 -7.08,1.5 2.13,-34.74 z" />
          <path class="st4" d="m 632.68,606.85 2.33,-34.72 8.28,-1.68 5.88,11.83 c 1.83,3.99 3.13,7.28 4.36,10.79 l 0.15,-0.03 c -0.26,-3.45 -0.21,-7.22 0.08,-12.3 l 0.8,-12.58 6.6,-1.34 -2.25,34.66 -7.31,1.49 -6.21,-12.42 c -2.01,-4.21 -3.26,-7.11 -4.63,-10.99 l -0.15,0.03 c 0.05,3.34 -0.17,8.26 -0.53,13.72 l -0.82,12.18 z" />
          <path class="st4" d="m 689.84,594.47 c -1.67,1.14 -4.54,2.36 -8.51,3.13 -8.78,1.71 -15.23,-2.58 -16.21,-11.37 -0.84,-7.49 1.84,-13.98 6.46,-18.31 3.16,-3.04 7.04,-4.95 11.68,-5.84 3.57,-0.69 6.35,-0.37 7.39,-0.01 l -1.3,6.16 c -0.98,-0.27 -3.25,-0.48 -6.09,0.07 -2.84,0.55 -5.43,1.96 -7.24,4.03 -2.48,2.86 -3.87,6.97 -3.34,11.64 0.6,5.31 3.99,8.3 9.77,7.18 2.35,-0.46 4.61,-1.3 6.15,-2.31 z" />
          <path class="st4" d="m 713.45,576.55 -11.68,2.17 -0.65,8.37 13.16,-2.45 -0.47,6.32 -20.27,3.78 2.71,-34.59 19.48,-3.6 -0.51,6.29 -12.4,2.29 -0.61,7.38 11.78,-2.18 z" />
          <path class="st4" d="m 737.69,560.69 -0.1,0.02 -5.92,3.86 -0.79,-5.5 8.38,-5.44 5.75,-1 -2.77,33.24 -6.74,1.19 z" />
          <path class="st4" d="m 755.43,578.07 c 0.84,-0.04 1.66,-0.23 2.98,-0.5 2.18,-0.57 4.31,-1.58 6.05,-3.08 2.2,-1.83 3.76,-4.21 4.61,-6.76 l -0.11,-0.08 c -1.41,1.85 -3.68,2.98 -5.82,3.34 -5.02,0.84 -8.76,-2.11 -9.25,-7.31 -0.65,-6.98 4.49,-13.86 11.64,-15.05 7,-1.16 10.72,3.14 11.32,9.51 0.68,7.63 -2.5,14.8 -6.41,18.99 -3.02,3.18 -7.37,5.42 -11.64,6.34 -1.84,0.41 -2.78,0.52 -3.66,0.61 z m 5.54,-16.49 c 0.25,2.63 1.91,4.06 4.11,3.69 1.9,-0.32 3.36,-1.57 4.03,-2.84 0.26,-0.4 0.46,-0.93 0.54,-1.65 0.13,-0.68 0.13,-1.78 0.05,-2.62 -0.24,-2.57 -1.65,-4.4 -4.28,-3.96 -2.77,0.47 -4.75,4.17 -4.45,7.38 z" />
          <path class="st4" d="m 790.34,551.92 -0.1,0.02 -5.93,3.75 -0.73,-5.5 8.4,-5.29 5.73,-0.91 -3.11,33.14 -6.72,1.08 z" />
          <path class="st4" d="m 807.03,567.81 c 1.32,0.5 3.94,1.21 7.05,0.74 3.94,-0.6 6.1,-2.93 5.89,-5.51 -0.24,-2.92 -2.69,-3.96 -6.82,-3.33 l -1.21,0.18 0.57,-5.6 1.12,-0.17 c 3.25,-0.49 6.88,-2.39 6.63,-5.31 -0.13,-1.58 -1.39,-2.59 -4.11,-2.18 -2.67,0.4 -4.99,1.5 -6.37,2.56 L 808.37,544 c 2.22,-1.63 5.5,-3.03 8.7,-3.51 5.28,-0.8 10.04,0.99 10.47,6.03 0.34,4 -2.52,7.44 -6.32,9.02 l -0.04,0.11 c 3.31,0.2 5.77,2.54 6.08,6.25 0.57,6.74 -5.86,11.63 -12.77,12.68 -4.04,0.61 -7.62,0.15 -9.13,-0.83 z" />
        </g>
      </g>
    </g>
  </switch>
</svg>